<?xml version="1.0" encoding="utf-8"?>
<!-- Generator: Adobe Illustrator 18.1.1, SVG Export Plug-In . SVG Version: 6.00 Build 0)  -->
<!DOCTYPE svg PUBLIC "-//W3C//DTD SVG 1.1//EN" "http://www.w3.org/Graphics/SVG/1.1/DTD/svg11.dtd">
<svg version="1.1" id="Layer_1" xmlns="http://www.w3.org/2000/svg" xmlns:xlink="http://www.w3.org/1999/xlink" x="0px" y="0px"
	 width="960px" height="560px" viewBox="0 0 960 560" enable-background="new 0 0 960 560" xml:space="preserve">
<g id="white">
	<path fill="#FFFFFF" d="M667.6,380.7c0-9.3,1.1-24.4-3-32.7c-5.2-10.7-7.7-18-10-31c-5.4-30.6-8.8-61.8-13.7-92.6
		c-3.5-22.6-4.4-58.2-22-74.7c-10.4-9.7-25.3-9.1-38.3-12.8c-6.5-1.9-18.5-3.7-22.1-4.1c-7.3-0.8-21.1-2-28.8-5.2
		c-9.9-4.1-15.5-14.1-18.7-24c-2.5-7.6-0.8-9.6-7.4-10.8c-6.3-1.2-21,1.2-29.3,2.5c-9.4,1.5-17.5,3.2-26.7,5.7
		c-6.5,1.8-22.2,6-23.8,12.8c-1.3,5.2,8,16.2,8.8,22c2.4,16-20.6,25-32.4,29.9c-29.1,12.3-55.8,25.6-59,60.6
		c-2.7,29.6,0.2,61.1-18.8,85.9c-2.9,3.8-5.6,7.1-7.1,11.6c-1.3,3.9,0.3,8.8-0.9,12.3c-1.7,4.9-5.4,5.7-8.8,9.7
		c-7.1,8.4-13.7,29.8-13,40.9c0.5,8.3,4.3,5.3,12,4.4c12.3-1.6,26.3,1.3,36,8.9c3.5,2.8,8.5,10.5,13,9.4c3.4-0.8,8.3-13.5,9.6-16.8
		c3.1-8.1,4.3-17,6.5-25.4c2.6-10.2,7.2-19.1,8.5-29.8c1.7-14.5,3.1-33,13.2-44.3c6.6,20.5,4.7,45.7,3.8,66.8
		c-0.6,13.6-6.2,19.1-11.7,30.9c-4.4,9.5-6.2,20.3-9.5,30.3c-6.1,18.4-13.6,33.3-16.7,53.1c-0.8,4.8-2.8,5.4,1.5,8.2
		c1.3,0.9,11.3,0.2,13.5,0.5c6.8,0.8,13.6,1.6,20.4,2.6c44.1,6.1,86.2,9.1,130.7,5.7c10.8-0.8,21.7-2.6,32.5-2.8
		c8.1-0.2,17.5,2.3,17.2-6c0,0.1-4-8.1-4.5-10.2c-0.9-3.3-1.8-6.5-2.4-9.9c-2.3-13.3-1.8-27.6-0.8-41c1.7-24.2,2.6-51.1,9.8-74.2
		c4.9-15.8,5.6-31.7,10.3-47.1c1,15.8,3.7,30.5,10.4,44.8c4.6,9.9,7.3,17.7,6.3,29c-1.4,16.7-6.1,32.6-2.6,49.6
		c0.7,3.5,2.4,12.7,5.4,15.3c3.5,3-1.3,1.6,4.6,1.9c1.8,0.1,6-1.1,7.7-1.4c9.7-1.2,22.8-2.4,32.3,0.3c8.4,2.3,9.5,6.3,12.8-2
		c2.7-6.7,1.8-17,2.6-24.3C666.2,402.4,667.6,391.4,667.6,380.7z"/>
	<path opacity="0.5" fill="#7F7F7F" d="M379,245.3c-1.3-2.2-2.6-3.9-4-4.8l0,0l0,0c-0.8-0.5-1.6-0.8-2.4-0.8
		c-10.4,0.1-15.8,111-5.8,109.7c6-0.7,9.3-22.5,9.9-26.6c1.2-7.9,3.3-15.6,6.5-22.9c1.5-3.5,8.4-9.3,7.9-12.8
		c0-0.2-1.3-8.2-3.6-17.6c3.3,7.3,6.3,14,7.4,17c4.9,13.7,7.9,24.5,8.5,43.4c0.6,18.3,4.4,32.2-5.1,55.8
		c-8.7,21.6-35.8,86.2-33.8,87.7c2,1.5,6,2.9,11,0.7c5.9-2.5,9.5-18,19.3-40.8c9.9-22.8,20.1-55.5,22.2-89.1
		C419,313.8,393.3,264.3,379,245.3z"/>
	<path opacity="0.5" fill="#7F7F7F" d="M577.5,235.4c-1.1,5.3-3.4,93.8,0.4,93.8c2.5,0,6.6-26.9,6.8-30.4c0.3-6.3,2.7-56.4,0.7-62.4
		C584.7,234.2,579.2,227.5,577.5,235.4z"/>
	<path opacity="0.5" fill="#7F7F7F" d="M458.3,142.2c1-4.3-1.9-18.2-6.4-20.1c-1.1-0.5-20.5-3.5-20.5-3.5s4.8,24.4,6,24.9
		S455.5,142.6,458.3,142.2z"/>
	<path opacity="0.5" fill="#7F7F7F" d="M513.2,158.4c-9.8,8.6-17.1,24-21.1,36.3c-1,3.2-6.5,34-3.2,48.5c0-6.1-0.3-12.8,1.9-26.6
		c1-6.7,2.8-12.5,5.2-18.9c3.1-8.1,6.7-17.6,11.5-24.8c1.5-2.2,3-4.3,4.6-6.4C512.7,165.6,519.1,153.2,513.2,158.4z"/>
	<path fill="#404040" d="M554.8,132.9C554.8,132.9,554.7,132.9,554.8,132.9C554.8,132.9,554.8,132.9,554.8,132.9z"/>
	<path fill="#404040" d="M667.6,380.7c0-9.3,1.1-24.4-3-32.7c-5.2-10.7-7.7-18-10-31c-5.4-30.6-8.8-61.8-13.7-92.6
		c-3.5-22.6-4.4-58.2-22-74.7c-10.4-9.7-25.3-9.1-38.3-12.8c-6.5-1.9-18.5-3.7-22.1-4.1c-7.3-0.8-21.1-2-28.8-5.2
		c-9.9-4.1-15.5-14.1-18.7-24c-2.5-7.6-0.8-9.6-7.4-10.8c-6.3-1.2-21,1.2-29.3,2.5c-9.4,1.5-17.5,3.2-26.7,5.7
		c-6.5,1.8-22.2,6-23.8,12.8c-1.3,5.2,8,16.2,8.8,22c2.4,16-20.6,25-32.4,29.9c-29.1,12.3-55.8,25.6-59,60.6
		c-2.7,29.6,0.2,61.1-18.8,85.9c-2.9,3.8-5.6,7.1-7.1,11.6c-1.3,3.9,0.3,8.8-0.9,12.3c-1.7,4.9-5.4,5.7-8.8,9.7
		c-7.1,8.4-13.7,29.8-13,40.9c0.5,8.3,4.3,5.3,12,4.4c12.3-1.6,26.3,1.3,36,8.9c3.5,2.8,8.5,10.5,13,9.4c3.4-0.8,8.3-13.5,9.6-16.8
		c3.1-8.1,4.3-17,6.5-25.4c2.6-10.2,7.2-19.1,8.5-29.8c1.7-14.5,3.1-33,13.2-44.3c6.6,20.5,4.7,45.7,3.8,66.8
		c-0.6,13.6-6.2,19.1-11.7,30.9c-4.4,9.5-6.2,20.3-9.5,30.3c-6.1,18.4-13.6,33.3-16.7,53.1c-0.8,4.8-2.8,5.4,1.5,8.2
		c1.3,0.9,11.3,0.2,13.5,0.5c6.8,0.8,13.6,1.6,20.4,2.6c44.1,6.1,86.2,9.1,130.7,5.7c10.8-0.8,21.7-2.6,32.5-2.8
		c8.1-0.2,17.5,2.3,17.2-6c0,0.1-4-8.1-4.5-10.2c-0.9-3.3-1.8-6.5-2.4-9.9c-2.3-13.3-1.8-27.6-0.8-41c1.7-24.2,2.6-51.1,9.8-74.2
		c4.9-15.8,5.6-31.7,10.3-47.1c1,15.8,3.7,30.5,10.4,44.8c4.6,9.9,7.3,17.7,6.3,29c-1.4,16.7-6.1,32.6-2.6,49.6
		c0.7,3.5,2.4,12.7,5.4,15.3c3.5,3-1.3,1.6,4.6,1.9c1.8,0.1,6-1.1,7.7-1.4c9.7-1.2,22.8-2.4,32.3,0.3c8.4,2.3,9.5,6.3,12.8-2
		c2.7-6.7,1.8-17,2.6-24.3C666.2,402.4,667.6,391.4,667.6,380.7z M554.8,132.9C554.8,132.9,554.7,132.9,554.8,132.9
		C554.8,132.9,554.8,132.9,554.8,132.9z M441.3,108.9c18.4-7.1,41.8-10.4,61.3-10.5c-12.2,17.3-52.4,22.5-70.8,15.2
		C434.9,111.8,438.1,110.3,441.3,108.9C443.4,108.1,438.1,110.3,441.3,108.9z M663.8,386.7c-3.8,16.5-3.1,35.2-4.9,52.3
		c-12.4-7.4-37.2-7.4-50.3-2.2c-1-7.7-5-14.3-5.5-22.4c-0.7-10.7,0.4-21,2.1-31.6c2.6-15.8,1.2-26.7-5.7-40.6
		c-6.9-14-9.1-28.3-10.3-44c-0.3-4.2-1-60.8-3.5-60.8c-0.3,0-0.4,57.9-1,61.4c-1.4,7.3-4.3,18.4-5.7,25.8
		c-2.4,12.5-7.7,20.5-10.1,33c-2.6,13.6-3.1,27.9-4.8,41.6c-3.4,28-4.9,56,3.2,83.4c-32.5,3.2-66.2,6-98.9,5.3
		c-35.6-0.7-70.6-11.2-106.2-11.9c3-23.6,13.5-42.2,20-64.5c3.7-12.6,9.3-20.9,14.2-32.6c5.1-11.9,3.8-24.7,3.8-37.3
		c0-19.5-0.4-37.8-5.8-56.5c-0.9-3.1-12.6-38.3-14.5-37.8c-2.5,0.7,11.5,36.5,11.1,39.7c-0.4,4.1-6.7,9.6-8.4,13.4
		c-3.2,7.1-4.9,16.7-6.4,24.4c-5.3,26.3-8.5,55.3-22.9,79c-8.4-15.3-40.4-23.6-56.5-18.3c4.6-12.3,3.5-27.1,12.6-37.4
		c5.9-6.7,8.5-5.3,9.5-14.3c1.1-10.1,3.8-13.8,10-22.2c11.6-15.6,14.2-37.3,15.2-56.3c0.9-16.6-1.4-40.6,8.5-53.2
		c17-21.9,42.4-29.4,66.9-40.7c4.4-2,7.5-3.7,10.9-6.9c12.9-12.1,6.2-21.5,1.1-36.1c21.9,8.3,60.6,1.8,75.4-17.1
		c6.7,23.6,20.7,29.3,42.8,32.6c9,1.4,18,3.3,26.9,5.6c15,3.9,33.6,3.6,43.6,17.3c11.6,15.8,11.6,40.7,15.1,59.2
		c4.7,24.6,8.6,49.4,11.5,74.3c2.2,18.6,2.9,39.8,12.1,55.8C665.3,357.4,664.2,374,663.8,386.7C663.6,387.4,663.8,386.4,663.8,386.7
		z"/>
	<path fill="#404040" d="M518.1,121.6c-0.8-0.8-1,0.3-1.5,0.9c-2.4,2.9-5,5.3-8.1,7.5c-6.3,4.3-13.7,6.6-21,8.2
		c-15.6,3.4-30.8,4.5-46.7,4.4c-2.6,0-4.8,0.6-2.9,3.5c1.2,1.8,2.9,2.8,4.9,3.4c4.7,1.3,10.1,0.6,14.9-0.1
		c10.8-1.6,19.8-3.5,30.3-6.6c6.7-2,12.7-3.9,18.8-7.4c5.8-3.3,8-5.8,9.7-9.6C517.5,123.5,518.3,121.8,518.1,121.6z"/>
	<path fill="#404040" d="M521.5,151.5c-0.4-0.4-30.9,14.2-36.3,15.1c-13.4,2.1-26.5,3.2-39.7,3.4c-6.6,0.1-7.5,0.6-5.4,5.5
		c4.6,10.5,20.6,21.4,28.1,30c5.1,5.9,9.1,13.1,13.3,19.7c4.2,6.5,7.7,20.3,7.7,19.8c0-18.6,2.2-34.4,9.6-51.7
		C500.8,188.7,523.3,153.2,521.5,151.5C521.2,151.2,521.8,151.8,521.5,151.5z M512.1,162.7c-15.4,27-23.9,49.3-23.1,80.6
		c-4.6-28.6-25.5-45.9-43.8-66.9c23.3-0.2,49.8-4.4,69.4-18C513.7,159.9,512.9,161.3,512.1,162.7
		C511.6,163.6,512.9,161.3,512.1,162.7z"/>
</g>
<polyline fill="none" stroke="#FF4338" stroke-width="4" stroke-miterlimit="10" points="492,120.8 574.6,87 719,87 "/>
<polyline fill="none" stroke="#0082CA" stroke-width="4" stroke-miterlimit="10" points="478.3,187 574.6,226 719,226 "/>
<g>
	<path fill="#FF4338" d="M746.7,80.8l4.8,11.5l4.3-11h3.1l-7.2,17.1l-5.3-12.3l-5.3,12.3L734,81.4h3.1l4.3,11l4.9-11.5H746.7z"/>
	<path fill="#FF4338" d="M776.7,81.4v16.1H774v-2.9c-0.6,1.2-1.5,2.1-2.5,2.7s-2.1,0.9-3.4,0.9c-2.3,0-4.2-0.8-5.6-2.4
		s-2.1-3.7-2.1-6.3c0-2.6,0.7-4.8,2.1-6.3s3.2-2.3,5.5-2.3c1.3,0,2.5,0.3,3.5,0.9s1.8,1.5,2.4,2.7v-3H776.7z M774,89.6
		c0-1.8-0.5-3.3-1.5-4.4s-2.3-1.7-3.9-1.7c-1.7,0-2.9,0.5-3.9,1.5s-1.4,2.4-1.4,4.3c0,1.9,0.5,3.4,1.4,4.5s2.3,1.6,4,1.6
		c1.6,0,2.9-0.5,3.9-1.5S774,91.5,774,89.6z"/>
	<path fill="#FF4338" d="M782.2,97.5V81.4h2.4v3.3c0.7-1.4,1.5-2.4,2.4-3s1.8-0.9,3-0.9c0.3,0,0.6,0,0.9,0.1s0.6,0.1,0.9,0.2
		l-0.9,2.5c-0.3-0.1-0.6-0.2-0.9-0.2s-0.6-0.1-0.8-0.1c-1.5,0-2.5,0.5-3.3,1.6s-1.1,2.6-1.1,4.7v7.8H782.2z"/>
	<path fill="#FF4338" d="M817.2,97.5V88c0-1.6-0.3-2.8-1-3.6s-1.7-1.2-3-1.2c-0.7,0-1.4,0.1-2,0.4s-1.2,0.7-1.6,1.3
		c-0.3,0.4-0.5,0.9-0.7,1.5s-0.2,1.5-0.2,2.8v8.3H806V88c0-1.6-0.3-2.8-1-3.6s-1.7-1.2-3-1.2c-0.7,0-1.4,0.1-2.1,0.4
		s-1.2,0.7-1.6,1.3c-0.3,0.4-0.5,0.9-0.7,1.4s-0.2,1.5-0.2,2.8v8.3h-2.7V81.4h2.7v2.5c0.7-1,1.5-1.8,2.4-2.3s2-0.8,3.2-0.8
		c1.3,0,2.4,0.3,3.3,0.8s1.6,1.4,2.1,2.4c0.7-1.1,1.5-1.9,2.5-2.5s2-0.8,3.3-0.8c1.8,0,3.2,0.5,4.2,1.5s1.5,2.4,1.5,4.2v11H817.2z"
		/>
	<path fill="#FF4338" d="M836,97.5V81.4h2.7v2.5c0.7-1,1.5-1.8,2.5-2.3s2.1-0.8,3.4-0.8c1.9,0,3.4,0.5,4.4,1.5s1.6,2.4,1.6,4.2v11
		h-2.8V88c0-1.6-0.3-2.8-1-3.6s-1.7-1.2-3.2-1.2c-0.8,0-1.6,0.1-2.2,0.4s-1.2,0.7-1.7,1.3c-0.3,0.4-0.6,0.9-0.7,1.4
		s-0.2,1.5-0.2,2.8v8.3H836z"/>
	<path fill="#FF4338" d="M870.4,89.9h-12.7v0.2c0,1.7,0.5,3.1,1.5,4.2s2.3,1.6,3.8,1.6c1.1,0,2.1-0.3,2.9-0.9s1.6-1.5,2.3-2.6
		l2.1,1.4c-0.8,1.5-1.8,2.5-3.1,3.3s-2.7,1.1-4.4,1.1c-2.4,0-4.4-0.8-5.9-2.4s-2.3-3.7-2.3-6.4c0-2.5,0.8-4.6,2.2-6.2
		s3.4-2.4,5.8-2.4c2.4,0,4.3,0.8,5.7,2.3s2.1,3.6,2.1,6.2V89.9z M867.5,87.7c-0.1-1.4-0.6-2.5-1.4-3.3s-2-1.2-3.5-1.2
		c-1.3,0-2.4,0.4-3.3,1.2s-1.4,1.9-1.5,3.2H867.5z"/>
	<path fill="#FF4338" d="M886.9,93.7v3.2c-0.7,0.4-1.5,0.8-2.5,1s-1.9,0.3-2.9,0.3c-2.5,0-4.5-0.8-6-2.4s-2.3-3.6-2.3-6.2
		c0-2.6,0.8-4.7,2.4-6.3s3.6-2.5,6-2.5c0.9,0,1.8,0.1,2.6,0.3s1.6,0.5,2.4,0.8v3c-0.7-0.5-1.4-0.8-2.2-1s-1.5-0.4-2.3-0.4
		c-1.8,0-3.3,0.6-4.3,1.7s-1.6,2.6-1.6,4.5c0,1.7,0.5,3,1.6,4.1s2.5,1.7,4.1,1.7c0.8,0,1.6-0.1,2.4-0.4S886,94.3,886.9,93.7z"/>
	<path fill="#FF4338" d="M890.8,97.5V70.3h2.8v18.5l7.8-7.3h3.7l-8,7.4l8.8,8.7h-3.8l-8.3-8.5v8.5H890.8z"/>
</g>
<g>
	<path fill="#0082CA" d="M749.2,232.1v3.2c-0.7,0.4-1.5,0.8-2.5,1s-1.9,0.3-2.9,0.3c-2.5,0-4.5-0.8-6-2.4s-2.3-3.6-2.3-6.2
		c0-2.6,0.8-4.7,2.4-6.3s3.6-2.5,6-2.5c0.9,0,1.8,0.1,2.6,0.3s1.6,0.5,2.4,0.8v3c-0.7-0.5-1.4-0.8-2.2-1s-1.5-0.4-2.3-0.4
		c-1.8,0-3.3,0.6-4.3,1.7s-1.6,2.6-1.6,4.5c0,1.7,0.5,3,1.6,4.1s2.5,1.7,4.1,1.7c0.8,0,1.6-0.1,2.4-0.4S748.3,232.7,749.2,232.1z"/>
	<path fill="#0082CA" d="M751.7,227.9c0-1.2,0.2-2.3,0.7-3.3s1.1-2,1.9-2.8s1.8-1.4,2.8-1.9s2.2-0.6,3.4-0.6c1.2,0,2.3,0.2,3.3,0.7
		s2,1.1,2.9,1.9c0.8,0.8,1.5,1.7,1.9,2.8s0.7,2.2,0.7,3.3s-0.2,2.3-0.7,3.3s-1.1,2-1.9,2.8c-0.9,0.8-1.8,1.5-2.9,1.9
		s-2.2,0.7-3.3,0.7c-1.2,0-2.3-0.2-3.4-0.7s-2-1.1-2.8-1.9c-0.8-0.8-1.5-1.8-1.9-2.8S751.7,229.1,751.7,227.9z M754.6,227.9
		c0,1.7,0.6,3.1,1.7,4.3s2.5,1.8,4.1,1.8c1.6,0,3-0.6,4.1-1.8s1.7-2.6,1.7-4.3s-0.6-3.1-1.7-4.3s-2.5-1.8-4.1-1.8
		c-1.6,0-3,0.6-4.1,1.8S754.6,226.2,754.6,227.9z"/>
	<path fill="#0082CA" d="M772.2,227.9c0-1.2,0.2-2.3,0.7-3.3s1.1-2,1.9-2.8s1.8-1.4,2.8-1.9s2.2-0.6,3.4-0.6c1.2,0,2.3,0.2,3.3,0.7
		s2,1.1,2.9,1.9c0.8,0.8,1.5,1.7,1.9,2.8s0.7,2.2,0.7,3.3s-0.2,2.3-0.7,3.3s-1.1,2-1.9,2.8c-0.9,0.8-1.8,1.5-2.9,1.9
		s-2.2,0.7-3.3,0.7c-1.2,0-2.3-0.2-3.4-0.7s-2-1.1-2.8-1.9c-0.8-0.8-1.5-1.8-1.9-2.8S772.2,229.1,772.2,227.9z M775.1,227.9
		c0,1.7,0.6,3.1,1.7,4.3s2.5,1.8,4.1,1.8c1.6,0,3-0.6,4.1-1.8s1.7-2.6,1.7-4.3s-0.6-3.1-1.7-4.3s-2.5-1.8-4.1-1.8
		c-1.6,0-3,0.6-4.1,1.8S775.1,226.2,775.1,227.9z"/>
	<path fill="#0082CA" d="M794.1,235.9v-27.2h2.8v27.2H794.1z"/>
	<path fill="#0082CA" d="M825.6,232.1v3.2c-0.7,0.4-1.5,0.8-2.5,1s-1.9,0.3-2.9,0.3c-2.5,0-4.5-0.8-6-2.4s-2.3-3.6-2.3-6.2
		c0-2.6,0.8-4.7,2.4-6.3s3.6-2.5,6-2.5c0.9,0,1.8,0.1,2.6,0.3s1.6,0.5,2.4,0.8v3c-0.7-0.5-1.4-0.8-2.2-1s-1.5-0.4-2.3-0.4
		c-1.8,0-3.3,0.6-4.3,1.7s-1.6,2.6-1.6,4.5c0,1.7,0.5,3,1.6,4.1s2.5,1.7,4.1,1.7c0.8,0,1.6-0.1,2.4-0.4S824.7,232.7,825.6,232.1z"/>
	<path fill="#0082CA" d="M829.4,235.9v-27.2h2.7v13.6c0.7-1,1.5-1.8,2.5-2.3s2.1-0.8,3.4-0.8c1.9,0,3.4,0.5,4.4,1.5s1.6,2.4,1.6,4.2
		v11h-2.8v-9.5c0-1.6-0.3-2.8-1-3.6s-1.7-1.2-3.2-1.2c-0.8,0-1.6,0.1-2.2,0.4s-1.2,0.7-1.7,1.3c-0.3,0.4-0.6,0.9-0.7,1.4
		s-0.2,1.5-0.2,2.8v8.3H829.4z"/>
	<path fill="#0082CA" d="M863.9,228.3h-12.7v0.2c0,1.7,0.5,3.1,1.5,4.2s2.3,1.6,3.8,1.6c1.1,0,2.1-0.3,2.9-0.9s1.6-1.5,2.3-2.6
		l2.1,1.4c-0.8,1.5-1.8,2.5-3.1,3.3s-2.7,1.1-4.4,1.1c-2.4,0-4.4-0.8-5.9-2.4s-2.3-3.7-2.3-6.4c0-2.5,0.8-4.6,2.2-6.2
		s3.4-2.4,5.8-2.4c2.4,0,4.3,0.8,5.7,2.3s2.1,3.6,2.1,6.2V228.3z M860.9,226c-0.1-1.4-0.6-2.5-1.4-3.3s-2-1.2-3.5-1.2
		c-1.3,0-2.4,0.4-3.3,1.2s-1.4,1.9-1.5,3.2H860.9z"/>
	<path fill="#0082CA" d="M866.3,233.2l2.4-1.6c0.4,0.9,1,1.5,1.7,1.9s1.5,0.6,2.4,0.6c0.9,0,1.6-0.2,2.2-0.7s0.8-1,0.8-1.8
		c0-0.6-0.2-1-0.6-1.4s-1-0.7-2-1l-0.5-0.2c-3.9-1.3-5.9-3-5.9-5.1c0-1.4,0.5-2.6,1.6-3.5s2.4-1.4,4.1-1.4c1.4,0,2.6,0.3,3.6,0.8
		s1.7,1.3,2.1,2.4l-2.2,1.4c-0.3-0.7-0.8-1.3-1.5-1.7s-1.4-0.6-2.2-0.6c-0.8,0-1.5,0.2-2,0.7s-0.8,1-0.8,1.7c0,1,1.1,1.8,3.2,2.5
		c0.4,0.1,0.7,0.2,0.9,0.3c1.7,0.6,3,1.2,3.6,1.9s1,1.7,1,2.9c0,1.5-0.5,2.8-1.6,3.7s-2.5,1.4-4.2,1.4c-1.5,0-2.8-0.3-3.8-0.8
		S866.9,234.3,866.3,233.2z"/>
	<path fill="#0082CA" d="M883.1,222.1h-3v-2.3h3v-6.5h2.8v6.5h3v2.3h-3v13.8h-2.8V222.1z"/>
</g>
<line fill="none" stroke="#FF5F00" stroke-width="4" stroke-miterlimit="10" x1="471" y1="346" x2="205" y2="346"/>
<g>
	<path fill="#FF5F00" d="M50.2,351.1v3.2c-0.7,0.4-1.5,0.8-2.5,1s-1.9,0.3-2.9,0.3c-2.5,0-4.5-0.8-6-2.4s-2.3-3.6-2.3-6.2
		c0-2.6,0.8-4.7,2.4-6.3s3.6-2.5,6-2.5c0.9,0,1.8,0.1,2.6,0.3s1.6,0.5,2.4,0.8v3c-0.7-0.5-1.4-0.8-2.2-1s-1.5-0.4-2.3-0.4
		c-1.8,0-3.3,0.6-4.3,1.7s-1.6,2.6-1.6,4.5c0,1.7,0.5,3,1.6,4.1s2.5,1.7,4.1,1.7c0.8,0,1.6-0.1,2.4-0.4S49.3,351.7,50.2,351.1z"/>
	<path fill="#FF5F00" d="M52.7,346.9c0-1.2,0.2-2.3,0.7-3.3s1.1-2,1.9-2.8s1.8-1.4,2.8-1.9s2.2-0.6,3.4-0.6c1.2,0,2.3,0.2,3.3,0.7
		s2,1.1,2.9,1.9c0.8,0.8,1.5,1.7,1.9,2.8s0.7,2.2,0.7,3.3s-0.2,2.3-0.7,3.3s-1.1,2-1.9,2.8c-0.9,0.8-1.8,1.5-2.9,1.9
		s-2.2,0.7-3.3,0.7c-1.2,0-2.3-0.2-3.4-0.7s-2-1.1-2.8-1.9c-0.8-0.8-1.5-1.8-1.9-2.8S52.7,348.1,52.7,346.9z M55.6,346.9
		c0,1.7,0.6,3.1,1.7,4.3s2.5,1.8,4.1,1.8c1.6,0,3-0.6,4.1-1.8s1.7-2.6,1.7-4.3s-0.6-3.1-1.7-4.3s-2.5-1.8-4.1-1.8
		c-1.6,0-3,0.6-4.1,1.8S55.6,345.2,55.6,346.9z"/>
	<path fill="#FF5F00" d="M96.9,354.9v-9.5c0-1.6-0.3-2.8-1-3.6s-1.7-1.2-3-1.2c-0.7,0-1.4,0.1-2,0.4s-1.2,0.7-1.6,1.3
		c-0.3,0.4-0.5,0.9-0.7,1.5s-0.2,1.5-0.2,2.8v8.3h-2.7v-9.5c0-1.6-0.3-2.8-1-3.6s-1.7-1.2-3-1.2c-0.7,0-1.4,0.1-2.1,0.4
		s-1.2,0.7-1.6,1.3c-0.3,0.4-0.5,0.9-0.7,1.4s-0.2,1.5-0.2,2.8v8.3h-2.7v-16.1h2.7v2.5c0.7-1,1.5-1.8,2.4-2.3s2-0.8,3.2-0.8
		c1.3,0,2.4,0.3,3.3,0.8s1.6,1.4,2.1,2.4c0.7-1.1,1.5-1.9,2.5-2.5s2-0.8,3.3-0.8c1.8,0,3.2,0.5,4.2,1.5s1.5,2.4,1.5,4.2v11H96.9z"/>
	<path fill="#FF5F00" d="M105.7,354.9v-13.8h-3.1v-2.3h3.1v-4.7c0-2.7,0.3-4.5,1-5.4s1.9-1.4,3.6-1.4c0.4,0,0.8,0,1.2,0.1
		s0.8,0.2,1.1,0.3v2.8c-0.4-0.2-0.7-0.3-1.1-0.4s-0.7-0.1-1.1-0.1c-0.8,0-1.4,0.3-1.7,0.8s-0.5,1.8-0.5,3.8v4.3h4.3v2.3h-4.2v13.8
		H105.7z"/>
	<path fill="#FF5F00" d="M114.1,346.9c0-1.2,0.2-2.3,0.7-3.3s1.1-2,1.9-2.8s1.8-1.4,2.8-1.9s2.2-0.6,3.4-0.6c1.2,0,2.3,0.2,3.3,0.7
		s2,1.1,2.9,1.9c0.8,0.8,1.5,1.7,1.9,2.8s0.7,2.2,0.7,3.3s-0.2,2.3-0.7,3.3s-1.1,2-1.9,2.8c-0.9,0.8-1.8,1.5-2.9,1.9
		s-2.2,0.7-3.3,0.7c-1.2,0-2.3-0.2-3.4-0.7s-2-1.1-2.8-1.9c-0.8-0.8-1.5-1.8-1.9-2.8S114.1,348.1,114.1,346.9z M117,346.9
		c0,1.7,0.6,3.1,1.7,4.3s2.5,1.8,4.1,1.8c1.6,0,3-0.6,4.1-1.8s1.7-2.6,1.7-4.3s-0.6-3.1-1.7-4.3s-2.5-1.8-4.1-1.8
		c-1.6,0-3,0.6-4.1,1.8S117,345.2,117,346.9z"/>
	<path fill="#FF5F00" d="M135.9,354.9v-16.1h2.4v3.3c0.7-1.4,1.5-2.4,2.4-3s1.8-0.9,3-0.9c0.3,0,0.6,0,0.9,0.1s0.6,0.1,0.9,0.2
		l-0.9,2.5c-0.3-0.1-0.6-0.2-0.9-0.2s-0.6-0.1-0.8-0.1c-1.5,0-2.5,0.5-3.3,1.6s-1.1,2.6-1.1,4.7v7.8H135.9z"/>
	<path fill="#FF5F00" d="M148.9,341.1h-3v-2.3h3v-6.5h2.8v6.5h3v2.3h-3v13.8h-2.8V341.1z"/>
</g>
<circle fill="#FF4338" cx="492" cy="120.8" r="5.1"/>
<circle fill="#0082CA" cx="478" cy="186.8" r="5.1"/>
<circle fill="#FF5F00" cx="470.9" cy="345.8" r="5.1"/>
<line fill="none" stroke="#D50054" stroke-width="4" stroke-miterlimit="10" x1="487" y1="248" x2="142" y2="248"/>
<g>
	<path fill="#D50054" d="M36.1,255.2l2.4-1.6c0.4,0.9,1,1.5,1.7,1.9s1.5,0.6,2.4,0.6c0.9,0,1.6-0.2,2.2-0.7s0.8-1,0.8-1.8
		c0-0.6-0.2-1-0.6-1.4s-1-0.7-2-1l-0.5-0.2c-3.9-1.3-5.9-3-5.9-5.1c0-1.4,0.5-2.6,1.6-3.5s2.4-1.4,4.1-1.4c1.4,0,2.6,0.3,3.6,0.8
		s1.7,1.3,2.1,2.4l-2.2,1.4c-0.3-0.7-0.8-1.3-1.5-1.7s-1.4-0.6-2.2-0.6c-0.8,0-1.5,0.2-2,0.7s-0.8,1-0.8,1.7c0,1,1.1,1.8,3.2,2.5
		c0.4,0.1,0.7,0.2,0.9,0.3c1.7,0.6,3,1.2,3.6,1.9s1,1.7,1,2.9c0,1.5-0.5,2.8-1.6,3.7s-2.5,1.4-4.2,1.4c-1.5,0-2.8-0.3-3.8-0.8
		S36.7,256.3,36.1,255.2z"/>
	<path fill="#D50054" d="M52.9,244.1h-3v-2.3h3v-6.5h2.8v6.5h3v2.3h-3v13.8h-2.8V244.1z"/>
	<path fill="#D50054" d="M61.1,265.7l4.4-9.4l-6.3-14.5h3.2l4.7,11.5l5-11.5h3l-10.8,23.9H61.1z"/>
	<path fill="#D50054" d="M77.8,257.9v-27.2h2.8v27.2H77.8z"/>
	<path fill="#D50054" d="M100.7,250.3H88v0.2c0,1.7,0.5,3.1,1.5,4.2s2.3,1.6,3.8,1.6c1.1,0,2.1-0.3,2.9-0.9s1.6-1.5,2.3-2.6l2.1,1.4
		c-0.8,1.5-1.8,2.5-3.1,3.3s-2.7,1.1-4.4,1.1c-2.4,0-4.4-0.8-5.9-2.4s-2.3-3.7-2.3-6.4c0-2.5,0.8-4.6,2.2-6.2s3.4-2.4,5.8-2.4
		c2.4,0,4.3,0.8,5.7,2.3s2.1,3.6,2.1,6.2V250.3z M97.8,248c-0.1-1.4-0.6-2.5-1.4-3.3s-2-1.2-3.5-1.2c-1.3,0-2.4,0.4-3.3,1.2
		s-1.4,1.9-1.5,3.2H97.8z"/>
</g>
<circle fill="#D50054" cx="486.9" cy="247.8" r="5.1"/>
<g>
</g>
<g>
</g>
<g>
</g>
<g>
</g>
<g>
</g>
<g>
</g>
<g>
</g>
<g>
</g>
<g>
</g>
<g>
</g>
<g>
</g>
<g>
</g>
<g>
</g>
<g>
</g>
<g>
</g>
</svg>
