<svg xmlns="http://www.w3.org/2000/svg" width="57" height="57" viewBox="471.5 471.5 57 57" enable-background="new 471.5 471.5 57 57"><path fill="#fff" d="M525.422 471.5h-50.843c-1.706 0-3.078 1.373-3.078 3.078v50.842c0 1.707 1.373 3.08 3.078 3.08h27.359v-22.096h-7.449v-8.589h7.449v-6.554c0-6.871 4.258-11.141 10.967-11.141 4.039 0 6.758.316 6.758.316v7.746h-4.551c-2.883 0-4.238 1.014-4.238 4.071v5.561h8.492l-1.094 8.589h-7.398v22.097h14.549c1.705 0 3.078-1.373 3.078-3.08v-50.842c-.001-1.705-1.374-3.078-3.079-3.078z"/></svg>