<?xml version="1.0" encoding="utf-8"?>
<!-- Generator: Adobe Illustrator 18.1.1, SVG Export Plug-In . SVG Version: 6.00 Build 0)  -->
<!DOCTYPE svg PUBLIC "-//W3C//DTD SVG 1.1//EN" "http://www.w3.org/Graphics/SVG/1.1/DTD/svg11.dtd">
<svg version="1.1" id="Default_g_x2B__icon" xmlns="http://www.w3.org/2000/svg" xmlns:xlink="http://www.w3.org/1999/xlink"
	 x="0px" y="0px" width="57px" height="57px" viewBox="-277 368 57 57" enable-background="new -277 368 57 57"
	 xml:space="preserve">
<g>
	<path fill="#FFFFFF" d="M-274,368h51c1.7,0,3,1.3,3,3v51c0,1.7-1.3,3-3,3h-51c-1.7,0-3-1.3-3-3v-51C-277,369.3-275.7,368-274,368
		L-274,368z"/>
	<g>
		<polygon fill="#404040" points="-229.1,394.4 -234.2,394.4 -234.2,389.4 -236.7,389.4 -236.7,394.4 -241.7,394.4 -241.7,396.8 
			-236.7,396.8 -236.7,401.8 -234.2,401.8 -234.2,396.8 -229.1,396.8 		"/>
		<path fill="#404040" d="M-247.1,399.1l-1.8-1.4c-0.6-0.4-1.3-1-1.3-2.1s0.8-1.8,1.4-2.4c2.1-1.6,4.3-3.4,4.3-7.1
			c0-3.8-2.3-5.6-3.5-6.6h3l3.3-2h-10.5c-2.7,0-6.4,0.3-9.3,2.6c-2.2,1.8-2.9,4.6-2.9,6.8c0,3.9,3,7.8,8.4,7.8c0.5,0,1.1,0,1.6-0.1
			c-0.3,0.6-0.5,1.1-0.5,1.9c0,1.5,0.8,2.5,1.5,3.4c-2.3,0.2-6.5,0.4-9.7,2.3c-3,1.7-3.9,4.3-3.9,6.1c0,3.7,3.4,7.2,10.7,7.2
			c8.7,0,13.4-4.8,13.4-9.5C-242.8,402.6-244.8,400.9-247.1,399.1z M-253.7,393.5c-4.4,0-6.3-5.5-6.3-8.9c0-1.3,0.3-2.8,1.1-3.8
			c0.8-1,2.2-1.5,3.5-1.5c4.2,0,6.4,5.6,6.4,9.2c0,0.9-0.1,2.4-1.3,3.5C-251,392.8-252.4,393.5-253.7,393.5z M-253.6,413.4
			c-5.4,0-8.9-2.5-8.9-6.1c0-3.5,3.2-4.7,4.4-5.1c2.1-0.7,4.9-0.8,5.3-0.8c0.5,0,0.8,0,1.2,0.1c3.9,2.7,5.5,4,5.5,6.6
			C-246.2,411.1-248.8,413.4-253.6,413.4z"/>
	</g>
</g>
</svg>
