<?xml version="1.0" encoding="utf-8"?>
<!-- Generator: Adobe Illustrator 18.1.1, SVG Export Plug-In . SVG Version: 6.00 Build 0)  -->
<!DOCTYPE svg PUBLIC "-//W3C//DTD SVG 1.1//EN" "http://www.w3.org/Graphics/SVG/1.1/DTD/svg11.dtd">
<svg version="1.1" id="Layer_1" xmlns="http://www.w3.org/2000/svg" xmlns:xlink="http://www.w3.org/1999/xlink" x="0px" y="0px"
	 width="450px" height="46.5px" viewBox="0 0 450 46.5" enable-background="new 0 0 450 46.5" xml:space="preserve">
<g>
	<path fill="#333333" d="M31.5,29.5V17.7H28v-1.1h8.3v1.1h-3.6v11.8H31.5z"/>
	<path fill="#333333" d="M41.8,29.5V16.6h1.2v5.2h7v-5.2h1.2v12.9h-1.2v-6.6h-7v6.6H41.8z"/>
	<path fill="#333333" d="M57.9,29.5V16.6h6.4v1.1h-5.2v4h5.2v1.1h-5.2v5.5h5.2v1.1H57.9z"/>
	<path fill="#333333" d="M92.7,23.1c0,0.9-0.2,1.8-0.5,2.6c-0.3,0.8-0.8,1.5-1.5,2.2c-0.7,0.6-1.4,1.1-2.2,1.5
		c-0.8,0.3-1.7,0.5-2.6,0.5c-0.9,0-1.8-0.2-2.6-0.5c-0.8-0.3-1.6-0.8-2.2-1.5c-0.7-0.7-1.2-1.4-1.5-2.2c-0.3-0.8-0.5-1.7-0.5-2.6
		c0-0.9,0.2-1.8,0.5-2.6c0.3-0.8,0.8-1.6,1.5-2.2c0.6-0.6,1.4-1.1,2.2-1.5c0.8-0.3,1.7-0.5,2.7-0.5c0.9,0,1.8,0.2,2.7,0.5
		c0.8,0.3,1.6,0.8,2.2,1.4c0.7,0.7,1.2,1.4,1.5,2.2S92.7,22.2,92.7,23.1z M85.8,28.8c0.8,0,1.5-0.1,2.2-0.4c0.7-0.3,1.3-0.7,1.8-1.2
		c0.5-0.5,0.9-1.2,1.2-1.9s0.4-1.4,0.4-2.2c0-0.8-0.1-1.5-0.4-2.2c-0.3-0.7-0.7-1.3-1.2-1.9c-0.5-0.5-1.1-0.9-1.8-1.2
		c-0.7-0.3-1.4-0.4-2.2-0.4c-0.8,0-1.5,0.1-2.2,0.4c-0.7,0.3-1.3,0.7-1.8,1.2c-0.5,0.6-0.9,1.2-1.2,1.9c-0.3,0.7-0.4,1.4-0.4,2.2
		c0,0.8,0.1,1.5,0.4,2.2c0.3,0.7,0.7,1.3,1.2,1.9c0.5,0.5,1.1,1,1.8,1.2C84.3,28.6,85,28.8,85.8,28.8z"/>
	<path fill="#333333" d="M98.9,29.5V16.1l9.1,10.8V16.6h1.1v13.2L100,19.1v10.4H98.9z"/>
	<path fill="#333333" d="M115.9,29.5V16.6h1.2v11.8h4.4v1.1H115.9z"/>
	<path fill="#333333" d="M128.4,29.5v-5.9l-4.3-6.9h1.4l3.5,5.9l3.5-5.9h1.3l-4.2,6.9v5.9H128.4z"/>
	<path fill="#333333" d="M146.8,27.3l1-0.5c0.2,0.6,0.5,1.1,1,1.5s1,0.5,1.7,0.5c0.8,0,1.5-0.2,1.9-0.7c0.5-0.5,0.7-1.1,0.7-2
		c0-0.6-0.2-1.1-0.5-1.5c-0.3-0.4-1-0.9-2-1.4c-1.3-0.7-2.2-1.3-2.6-1.8s-0.6-1.1-0.6-1.9c0-0.9,0.3-1.7,0.9-2.2s1.4-0.9,2.4-0.9
		c0.6,0,1.2,0.1,1.7,0.4c0.5,0.3,0.9,0.7,1.2,1.2l-0.9,0.5c-0.2-0.4-0.5-0.7-0.8-0.8c-0.3-0.2-0.7-0.3-1.2-0.3
		c-0.6,0-1.1,0.2-1.5,0.6s-0.6,0.9-0.6,1.5c0,0.9,0.7,1.7,2.2,2.5c0.3,0.1,0.5,0.2,0.6,0.3c1.1,0.6,1.8,1.2,2.2,1.7s0.6,1.2,0.6,2.1
		c0,1.2-0.3,2.1-1,2.7s-1.6,1-2.8,1c-0.8,0-1.6-0.2-2.2-0.6S147.2,28.2,146.8,27.3z"/>
	<path fill="#333333" d="M160.4,29.5V16.6h1.2v5.2h7v-5.2h1.2v12.9h-1.2v-6.6h-7v6.6H160.4z"/>
	<path fill="#333333" d="M176.5,29.5V16.6h1.2v12.9H176.5z"/>
	<path fill="#333333" d="M192.3,29.5h-1.4l-4.5-6.1h-0.7v6.1h-1.2V16.6h2.4c1.4,0,2.4,0.3,3.1,0.9c0.7,0.6,1,1.5,1,2.6
		c0,1-0.3,1.8-0.9,2.4s-1.4,0.9-2.5,0.9L192.3,29.5z M185.7,17.6v4.8h1.2c1.1,0,1.9-0.2,2.3-0.5c0.4-0.3,0.6-0.9,0.6-1.8
		c0-0.9-0.2-1.5-0.7-1.9s-1.2-0.6-2.3-0.6H185.7z"/>
	<path fill="#333333" d="M199.6,29.5V17.7H196v-1.1h8.3v1.1h-3.6v11.8H199.6z"/>
	<path fill="#333333" d="M221.4,29.5v-5.9l-4.3-6.9h1.4l3.5,5.9l3.5-5.9h1.3l-4.2,6.9v5.9H221.4z"/>
	<path fill="#333333" d="M244.6,23.1c0,0.9-0.2,1.8-0.5,2.6c-0.3,0.8-0.8,1.5-1.5,2.2c-0.7,0.6-1.4,1.1-2.2,1.5
		c-0.8,0.3-1.7,0.5-2.6,0.5c-0.9,0-1.8-0.2-2.6-0.5c-0.8-0.3-1.6-0.8-2.2-1.5c-0.7-0.7-1.2-1.4-1.5-2.2c-0.3-0.8-0.5-1.7-0.5-2.6
		c0-0.9,0.2-1.8,0.5-2.6c0.3-0.8,0.8-1.6,1.5-2.2c0.6-0.6,1.4-1.1,2.2-1.5c0.8-0.3,1.7-0.5,2.7-0.5c0.9,0,1.8,0.2,2.7,0.5
		c0.8,0.3,1.6,0.8,2.2,1.4c0.7,0.7,1.2,1.4,1.5,2.2S244.6,22.2,244.6,23.1z M237.7,28.8c0.8,0,1.5-0.1,2.2-0.4
		c0.7-0.3,1.3-0.7,1.8-1.2c0.5-0.5,0.9-1.2,1.2-1.9s0.4-1.4,0.4-2.2c0-0.8-0.1-1.5-0.4-2.2c-0.3-0.7-0.7-1.3-1.2-1.9
		c-0.5-0.5-1.1-0.9-1.8-1.2c-0.7-0.3-1.4-0.4-2.2-0.4c-0.8,0-1.5,0.1-2.2,0.4c-0.7,0.3-1.3,0.7-1.8,1.2c-0.5,0.6-0.9,1.2-1.2,1.9
		c-0.3,0.7-0.4,1.4-0.4,2.2c0,0.8,0.1,1.5,0.4,2.2c0.3,0.7,0.7,1.3,1.2,1.9c0.5,0.5,1.1,1,1.8,1.2C236.2,28.6,236.9,28.8,237.7,28.8
		z"/>
	<path fill="#333333" d="M250.7,16.6h1.2V25c0,1.3,0.3,2.2,0.9,2.8s1.5,0.9,2.7,0.9c1.2,0,2.1-0.3,2.6-0.9s0.9-1.6,0.9-2.8v-8.4h1.2
		v8c0,1.7-0.4,3-1.2,3.9s-1.9,1.3-3.5,1.3c-1.6,0-2.8-0.4-3.5-1.3s-1.2-2.2-1.2-3.9V16.6z"/>
	<path fill="#333333" d="M266.3,21.1l1.7-4.7l1.3,0.6l-2.3,4.4L266.3,21.1z"/>
	<path fill="#333333" d="M275.6,29.5V16.6h1.2v11.8h4.4v1.1H275.6z"/>
	<path fill="#333333" d="M286.6,29.5V16.6h1.2v11.8h4.4v1.1H286.6z"/>
	<path fill="#333333" d="M306.5,29.5V16.6h6.4v1.1h-5.2v4h5.2v1.1h-5.2v5.5h5.2v1.1H306.5z"/>
	<path fill="#333333" d="M322.6,30l-5-13.4h1.3l3.7,10.5l3.9-10.5h1.3L322.6,30z"/>
	<path fill="#333333" d="M332.8,29.5V16.6h6.4v1.1H334v4h5.2v1.1H334v5.5h5.2v1.1H332.8z"/>
	<path fill="#333333" d="M353.5,29.5H352l-4.5-6.1h-0.7v6.1h-1.2V16.6h2.4c1.4,0,2.4,0.3,3.1,0.9c0.7,0.6,1,1.5,1,2.6
		c0,1-0.3,1.8-0.9,2.4s-1.4,0.9-2.5,0.9L353.5,29.5z M346.8,17.6v4.8h1.2c1.1,0,1.9-0.2,2.3-0.5c0.4-0.3,0.6-0.9,0.6-1.8
		c0-0.9-0.2-1.5-0.7-1.9s-1.2-0.6-2.3-0.6H346.8z"/>
	<path fill="#333333" d="M370.6,30l-4.4-13.4h1.2l3.2,10.3l3.4-10.8l3.6,10.7l3.1-10.2h1.2L377.6,30L374,19.1L370.6,30z"/>
	<path fill="#333333" d="M387.3,29.5V16.6h6.4v1.1h-5.2v4h5.2v1.1h-5.2v5.5h5.2v1.1H387.3z"/>
	<path fill="#333333" d="M398.4,29.5l5.7-13.4l5.4,13.4h-1.3l-1.6-4.4h-5.3l-1.7,4.4H398.4z M401.7,24.1h4.5l-2.2-5.6L401.7,24.1z"
		/>
	<path fill="#333333" d="M422.3,29.5h-1.4l-4.5-6.1h-0.7v6.1h-1.2V16.6h2.4c1.4,0,2.4,0.3,3.1,0.9c0.7,0.6,1,1.5,1,2.6
		c0,1-0.3,1.8-0.9,2.4s-1.4,0.9-2.5,0.9L422.3,29.5z M415.7,17.6v4.8h1.2c1.1,0,1.9-0.2,2.3-0.5c0.4-0.3,0.6-0.9,0.6-1.8
		c0-0.9-0.2-1.5-0.7-1.9s-1.2-0.6-2.3-0.6H415.7z"/>
</g>
<g>
</g>
<g>
</g>
<g>
</g>
<g>
</g>
<g>
</g>
<g>
</g>
</svg>
