<?xml version="1.0" encoding="utf-8"?>
<!-- Generator: Adobe Illustrator 18.1.1, SVG Export Plug-In . SVG Version: 6.00 Build 0)  -->
<!DOCTYPE svg PUBLIC "-//W3C//DTD SVG 1.1//EN" "http://www.w3.org/Graphics/SVG/1.1/DTD/svg11.dtd">
<svg version="1.1" id="Layer_1" xmlns="http://www.w3.org/2000/svg" xmlns:xlink="http://www.w3.org/1999/xlink" x="0px" y="0px"
	 width="450px" height="95px" viewBox="0 0 450 95" enable-background="new 0 0 450 95" xml:space="preserve">
<g>
	<rect x="0" y="12.8" fill="none" width="450" height="82.2"/>
	<path fill="#333333" d="M57,72.2V25.1H42.8v-4.4h33v4.4H61.7v47.1H57z"/>
	<path fill="#333333" d="M97.8,20.7h4.6v33.6c0,5.1,1.2,8.9,3.5,11.3c2.3,2.5,5.9,3.7,10.7,3.7c4.7,0,8.2-1.2,10.5-3.7
		c2.3-2.5,3.5-6.3,3.5-11.3V20.7h4.7v32.1c0,7-1.5,12.2-4.6,15.6c-3.1,3.4-7.8,5.2-14.1,5.2c-6.3,0-11-1.7-14.1-5.2
		s-4.6-8.6-4.6-15.6V20.7z"/>
	<path fill="#333333" d="M193.5,72.2h-5.7l-18.1-24.5h-2.8v24.5h-4.7V20.7h9.5c5.6,0,9.8,1.2,12.5,3.5s4.2,5.8,4.2,10.5
		c0,4-1.2,7.2-3.6,9.5c-2.4,2.3-5.7,3.4-9.8,3.4L193.5,72.2z M166.9,24.8v19h4.7c4.4,0,7.4-0.7,9.1-2.1c1.7-1.4,2.6-3.8,2.6-7.1
		c0-3.5-0.9-6.1-2.7-7.6c-1.8-1.5-4.8-2.2-9-2.2H166.9z"/>
	<path fill="#333333" d="M222.5,72.2V25.1h-14.2v-4.4h33v4.4h-14.2v47.1H222.5z"/>
	<path fill="#333333" d="M263.6,72.2V20.7h4.7v47.1h17.6v4.4H263.6z"/>
	<path fill="#333333" d="M307.7,72.2V20.7h25.5v4.4h-20.8v16.1h20.8v4.4h-20.8v22.2h20.8v4.4H307.7z"/>
	<path fill="#333333" d="M369.1,17.9l15,37.6l15.2-37.6h9l-24.4,58.4l-23.8-58.4H369.1z"/>
</g>
<g>
</g>
<g>
</g>
<g>
</g>
<g>
</g>
<g>
</g>
<g>
</g>
</svg>
