<svg xmlns="http://www.w3.org/2000/svg" width="57" height="57" viewBox="471.5 471.5 57 57" enable-background="new 471.5 471.5 57 57"><path fill="#fff" d="M525.421 471.5h-50.843c-1.706 0-3.078 1.373-3.078 3.078v50.843c0 1.706 1.373 3.079 3.078 3.079h50.843c1.706 0 3.079-1.373 3.079-3.079v-50.843c0-1.705-1.373-3.078-3.079-3.078zm-7.525 19.321c.017.396.027.795.027 1.195 0 12.2-9.289 26.27-26.27 26.27-5.213 0-10.067-1.527-14.153-4.146.723.084 1.457.129 2.201.129 4.327 0 8.308-1.477 11.468-3.952-4.04-.076-7.45-2.744-8.625-6.412.563.105 1.142.166 1.738.166.842 0 1.658-.113 2.433-.324-4.224-.848-7.407-4.581-7.407-9.053l.001-.117c1.244.691 2.668 1.107 4.182 1.156-2.477-1.657-4.107-4.483-4.107-7.686 0-1.692.455-3.277 1.25-4.641 4.553 5.584 11.357 9.26 19.029 9.646-.156-.677-.238-1.381-.238-2.104 0-5.098 4.132-9.232 9.232-9.232 2.654 0 5.055 1.122 6.738 2.917 2.103-.413 4.08-1.183 5.863-2.241-.69 2.157-2.155 3.966-4.06 5.109 1.867-.223 3.647-.721 5.301-1.454-1.234 1.849-2.802 3.474-4.603 4.774z"/></svg>